<?xml version="1.0" encoding="UTF-8" standalone="no"?>
<!DOCTYPE svg PUBLIC "-//W3C//DTD SVG 1.1//EN"
 "http://www.w3.org/Graphics/SVG/1.1/DTD/svg11.dtd">
<!-- Generated by graphviz version 2.40.1 (20161225.0304)
 -->
<!-- Title: dependencies Pages: 1 -->
<svg width="826pt" height="211pt"
 viewBox="0.00 0.00 826.00 211.00" xmlns="http://www.w3.org/2000/svg" xmlns:xlink="http://www.w3.org/1999/xlink">
<g id="graph0" class="graph" transform="scale(1 1) rotate(0) translate(4 207)">
<title>dependencies</title>
<polygon fill="#ffffff" stroke="transparent" points="-4,4 -4,-207 822,-207 822,4 -4,4"/>
<text text-anchor="start" x="388.0091" y="-42.4" font-family="sans-serif" font-weight="bold" font-size="14.00" fill="#000000">Legend</text>
<polygon fill="#ffffb3" stroke="transparent" points="175,-10 175,-30 195,-30 195,-10 175,-10"/>
<text text-anchor="start" x="198.629" y="-15.4" font-family="sans-serif" font-size="14.00" fill="#000000"> &#160;Declarations</text>
<polygon fill="#8dd3c7" stroke="transparent" points="288,-10 288,-30 308,-30 308,-10 288,-10"/>
<text text-anchor="start" x="311.7251" y="-15.4" font-family="sans-serif" font-size="14.00" fill="#000000"> &#160;Module</text>
<polygon fill="#80b1d3" stroke="transparent" points="374,-10 374,-30 394,-30 394,-10 374,-10"/>
<text text-anchor="start" x="397.7812" y="-15.4" font-family="sans-serif" font-size="14.00" fill="#000000"> &#160;Bootstrap</text>
<polygon fill="#fdb462" stroke="transparent" points="471,-10 471,-30 491,-30 491,-10 471,-10"/>
<text text-anchor="start" x="494.6732" y="-15.4" font-family="sans-serif" font-size="14.00" fill="#000000"> &#160;Providers</text>
<polygon fill="#fb8072" stroke="transparent" points="567,-10 567,-30 587,-30 587,-10 567,-10"/>
<text text-anchor="start" x="590.7258" y="-15.4" font-family="sans-serif" font-size="14.00" fill="#000000"> &#160;Exports</text>
<g id="clust1" class="cluster">
<title>cluster_MenuModule</title>
<polygon fill="none" stroke="#000000" stroke-dasharray="1,5" points="8,-70 8,-195 810,-195 810,-70 8,-70"/>
</g>
<g id="clust2" class="cluster">
<title>cluster_MenuModule_declarations</title>
<polygon fill="none" stroke="#000000" points="264,-78 264,-130 802,-130 802,-78 264,-78"/>
</g>
<g id="clust7" class="cluster">
<title>cluster_MenuModule_imports</title>
<polygon fill="none" stroke="#000000" points="154,-78 154,-130 256,-130 256,-78 154,-78"/>
</g>
<g id="clust10" class="cluster">
<title>cluster_MenuModule_providers</title>
<polygon fill="none" stroke="#000000" points="16,-78 16,-130 146,-130 146,-78 16,-78"/>
</g>
<!-- FormComponent -->
<g id="node1" class="node">
<title>FormComponent</title>
<polygon fill="#ffffb3" stroke="#000000" points="793.6667,-122 682.3333,-122 682.3333,-86 793.6667,-86 793.6667,-122"/>
<text text-anchor="middle" x="738" y="-99.8" font-family="Times,serif" font-size="14.00" fill="#000000">FormComponent</text>
</g>
<!-- MenuModule -->
<g id="node5" class="node">
<title>MenuModule</title>
<polygon fill="#8dd3c7" stroke="#000000" points="444.2092,-187 441.2092,-191 420.2092,-191 417.2092,-187 351.7908,-187 351.7908,-151 444.2092,-151 444.2092,-187"/>
<text text-anchor="middle" x="398" y="-164.8" font-family="Times,serif" font-size="14.00" fill="#000000">MenuModule</text>
</g>
<!-- FormComponent&#45;&gt;MenuModule -->
<g id="edge1" class="edge">
<title>FormComponent&#45;&gt;MenuModule</title>
<path fill="none" stroke="#000000" d="M738,-122.2843C738,-143.3211 738,-175 738,-175 738,-175 454.2078,-175 454.2078,-175"/>
<polygon fill="#000000" stroke="#000000" points="454.2078,-171.5001 444.2078,-175 454.2077,-178.5001 454.2078,-171.5001"/>
</g>
<!-- ManualComponent -->
<g id="node2" class="node">
<title>ManualComponent</title>
<polygon fill="#ffffb3" stroke="#000000" points="664.0968,-122 539.9032,-122 539.9032,-86 664.0968,-86 664.0968,-122"/>
<text text-anchor="middle" x="602" y="-99.8" font-family="Times,serif" font-size="14.00" fill="#000000">ManualComponent</text>
</g>
<!-- ManualComponent&#45;&gt;MenuModule -->
<g id="edge2" class="edge">
<title>ManualComponent&#45;&gt;MenuModule</title>
<path fill="none" stroke="#000000" d="M602,-122.0225C602,-139.3734 602,-163 602,-163 602,-163 454.2908,-163 454.2908,-163"/>
<polygon fill="#000000" stroke="#000000" points="454.2908,-159.5001 444.2908,-163 454.2907,-166.5001 454.2908,-159.5001"/>
</g>
<!-- MenuComponent -->
<g id="node3" class="node">
<title>MenuComponent</title>
<polygon fill="#ffffb3" stroke="#000000" points="521.9916,-122 408.0084,-122 408.0084,-86 521.9916,-86 521.9916,-122"/>
<text text-anchor="middle" x="465" y="-99.8" font-family="Times,serif" font-size="14.00" fill="#000000">MenuComponent</text>
</g>
<!-- MenuComponent&#45;&gt;MenuModule -->
<g id="edge3" class="edge">
<title>MenuComponent&#45;&gt;MenuModule</title>
<path fill="none" stroke="#000000" d="M426.0544,-122.1061C426.0544,-122.1061 426.0544,-140.991 426.0544,-140.991"/>
<polygon fill="#000000" stroke="#000000" points="422.5544,-140.9909 426.0544,-150.991 429.5544,-140.991 422.5544,-140.9909"/>
</g>
<!-- TestesComponent -->
<g id="node4" class="node">
<title>TestesComponent</title>
<polygon fill="#ffffb3" stroke="#000000" points="389.594,-122 272.406,-122 272.406,-86 389.594,-86 389.594,-122"/>
<text text-anchor="middle" x="331" y="-99.8" font-family="Times,serif" font-size="14.00" fill="#000000">TestesComponent</text>
</g>
<!-- TestesComponent&#45;&gt;MenuModule -->
<g id="edge4" class="edge">
<title>TestesComponent&#45;&gt;MenuModule</title>
<path fill="none" stroke="#000000" d="M370.7213,-122.1061C370.7213,-122.1061 370.7213,-140.991 370.7213,-140.991"/>
<polygon fill="#000000" stroke="#000000" points="367.2213,-140.9909 370.7213,-150.991 374.2213,-140.991 367.2213,-140.9909"/>
</g>
<!-- CoreModule -->
<g id="node6" class="node">
<title>CoreModule</title>
<polygon fill="#8dd3c7" stroke="#000000" points="248.2619,-122 245.2619,-126 224.2619,-126 221.2619,-122 161.7381,-122 161.7381,-86 248.2619,-86 248.2619,-122"/>
<text text-anchor="middle" x="205" y="-99.8" font-family="Times,serif" font-size="14.00" fill="#000000">CoreModule</text>
</g>
<!-- CoreModule&#45;&gt;MenuModule -->
<g id="edge5" class="edge">
<title>CoreModule&#45;&gt;MenuModule</title>
<path fill="none" stroke="#000000" d="M205,-122.0225C205,-139.3734 205,-163 205,-163 205,-163 341.7717,-163 341.7717,-163"/>
<polygon fill="#000000" stroke="#000000" points="341.7717,-166.5001 351.7717,-163 341.7717,-159.5001 341.7717,-166.5001"/>
</g>
<!-- HttpService -->
<g id="node7" class="node">
<title>HttpService</title>
<ellipse fill="#fdb462" stroke="#000000" cx="81" cy="-104" rx="57.3185" ry="18"/>
<text text-anchor="middle" x="81" y="-99.8" font-family="Times,serif" font-size="14.00" fill="#000000">HttpService</text>
</g>
<!-- HttpService&#45;&gt;MenuModule -->
<g id="edge6" class="edge">
<title>HttpService&#45;&gt;MenuModule</title>
<path fill="none" stroke="#000000" d="M81,-122.2843C81,-143.3211 81,-175 81,-175 81,-175 341.566,-175 341.566,-175"/>
<polygon fill="#000000" stroke="#000000" points="341.566,-178.5001 351.566,-175 341.566,-171.5001 341.566,-178.5001"/>
</g>
</g>
</svg>
