<?xml version="1.0" encoding="UTF-8" standalone="no"?>
<!DOCTYPE svg PUBLIC "-//W3C//DTD SVG 1.1//EN"
 "http://www.w3.org/Graphics/SVG/1.1/DTD/svg11.dtd">
<!-- Generated by graphviz version 2.40.1 (20161225.0304)
 -->
<!-- Title: dependencies Pages: 1 -->
<svg width="545pt" height="211pt"
 viewBox="0.00 0.00 545.00 211.00" xmlns="http://www.w3.org/2000/svg" xmlns:xlink="http://www.w3.org/1999/xlink">
<g id="graph0" class="graph" transform="scale(1 1) rotate(0) translate(4 207)">
<title>dependencies</title>
<polygon fill="#ffffff" stroke="transparent" points="-4,4 -4,-207 541,-207 541,4 -4,4"/>
<text text-anchor="start" x="247.5091" y="-42.4" font-family="sans-serif" font-weight="bold" font-size="14.00" fill="#000000">Legend</text>
<polygon fill="#ffffb3" stroke="transparent" points="34.5,-10 34.5,-30 54.5,-30 54.5,-10 34.5,-10"/>
<text text-anchor="start" x="58.129" y="-15.4" font-family="sans-serif" font-size="14.00" fill="#000000"> &#160;Declarations</text>
<polygon fill="#8dd3c7" stroke="transparent" points="147.5,-10 147.5,-30 167.5,-30 167.5,-10 147.5,-10"/>
<text text-anchor="start" x="171.2251" y="-15.4" font-family="sans-serif" font-size="14.00" fill="#000000"> &#160;Module</text>
<polygon fill="#80b1d3" stroke="transparent" points="233.5,-10 233.5,-30 253.5,-30 253.5,-10 233.5,-10"/>
<text text-anchor="start" x="257.2812" y="-15.4" font-family="sans-serif" font-size="14.00" fill="#000000"> &#160;Bootstrap</text>
<polygon fill="#fdb462" stroke="transparent" points="330.5,-10 330.5,-30 350.5,-30 350.5,-10 330.5,-10"/>
<text text-anchor="start" x="354.1732" y="-15.4" font-family="sans-serif" font-size="14.00" fill="#000000"> &#160;Providers</text>
<polygon fill="#fb8072" stroke="transparent" points="426.5,-10 426.5,-30 446.5,-30 446.5,-10 426.5,-10"/>
<text text-anchor="start" x="450.2258" y="-15.4" font-family="sans-serif" font-size="14.00" fill="#000000"> &#160;Exports</text>
<g id="clust1" class="cluster">
<title>cluster_CoreModule</title>
<polygon fill="none" stroke="#000000" stroke-dasharray="1,5" points="8,-70 8,-195 529,-195 529,-70 8,-70"/>
</g>
<g id="clust6" class="cluster">
<title>cluster_CoreModule_providers</title>
<polygon fill="none" stroke="#000000" points="16,-78 16,-130 521,-130 521,-78 16,-78"/>
</g>
<!-- ChartConfiguratorService -->
<g id="node1" class="node">
<title>ChartConfiguratorService</title>
<ellipse fill="#fdb462" stroke="#000000" cx="402" cy="-104" rx="111.1538" ry="18"/>
<text text-anchor="middle" x="402" y="-99.8" font-family="Times,serif" font-size="14.00" fill="#000000">ChartConfiguratorService</text>
</g>
<!-- CoreModule -->
<g id="node4" class="node">
<title>CoreModule</title>
<polygon fill="#8dd3c7" stroke="#000000" points="257.2619,-187 254.2619,-191 233.2619,-191 230.2619,-187 170.7381,-187 170.7381,-151 257.2619,-151 257.2619,-187"/>
<text text-anchor="middle" x="214" y="-164.8" font-family="Times,serif" font-size="14.00" fill="#000000">CoreModule</text>
</g>
<!-- ChartConfiguratorService&#45;&gt;CoreModule -->
<g id="edge1" class="edge">
<title>ChartConfiguratorService&#45;&gt;CoreModule</title>
<path fill="none" stroke="#000000" d="M402,-122.1061C402,-141.3391 402,-169 402,-169 402,-169 267.6035,-169 267.6035,-169"/>
<polygon fill="#000000" stroke="#000000" points="267.6036,-165.5001 257.6035,-169 267.6035,-172.5001 267.6036,-165.5001"/>
</g>
<!-- DataService -->
<g id="node2" class="node">
<title>DataService</title>
<ellipse fill="#fdb462" stroke="#000000" cx="214" cy="-104" rx="58.4415" ry="18"/>
<text text-anchor="middle" x="214" y="-99.8" font-family="Times,serif" font-size="14.00" fill="#000000">DataService</text>
</g>
<!-- DataService&#45;&gt;CoreModule -->
<g id="edge2" class="edge">
<title>DataService&#45;&gt;CoreModule</title>
<path fill="none" stroke="#000000" d="M214,-122.1061C214,-122.1061 214,-140.991 214,-140.991"/>
<polygon fill="#000000" stroke="#000000" points="210.5001,-140.9909 214,-150.991 217.5001,-140.991 210.5001,-140.9909"/>
</g>
<!-- HttpService -->
<g id="node3" class="node">
<title>HttpService</title>
<ellipse fill="#fdb462" stroke="#000000" cx="81" cy="-104" rx="57.3185" ry="18"/>
<text text-anchor="middle" x="81" y="-99.8" font-family="Times,serif" font-size="14.00" fill="#000000">HttpService</text>
</g>
<!-- HttpService&#45;&gt;CoreModule -->
<g id="edge3" class="edge">
<title>HttpService&#45;&gt;CoreModule</title>
<path fill="none" stroke="#000000" d="M81,-122.1061C81,-141.3391 81,-169 81,-169 81,-169 160.4508,-169 160.4508,-169"/>
<polygon fill="#000000" stroke="#000000" points="160.4509,-172.5001 170.4508,-169 160.4508,-165.5001 160.4509,-172.5001"/>
</g>
</g>
</svg>
