<?xml version="1.0" encoding="UTF-8" standalone="no"?>
<!DOCTYPE svg PUBLIC "-//W3C//DTD SVG 1.1//EN"
 "http://www.w3.org/Graphics/SVG/1.1/DTD/svg11.dtd">
<!-- Generated by graphviz version 2.40.1 (20161225.0304)
 -->
<!-- Title: dependencies Pages: 1 -->
<svg width="796pt" height="211pt"
 viewBox="0.00 0.00 796.00 211.00" xmlns="http://www.w3.org/2000/svg" xmlns:xlink="http://www.w3.org/1999/xlink">
<g id="graph0" class="graph" transform="scale(1 1) rotate(0) translate(4 207)">
<title>dependencies</title>
<polygon fill="#ffffff" stroke="transparent" points="-4,4 -4,-207 792,-207 792,4 -4,4"/>
<text text-anchor="start" x="373.0091" y="-42.4" font-family="sans-serif" font-weight="bold" font-size="14.00" fill="#000000">Legend</text>
<polygon fill="#ffffb3" stroke="transparent" points="160,-10 160,-30 180,-30 180,-10 160,-10"/>
<text text-anchor="start" x="183.629" y="-15.4" font-family="sans-serif" font-size="14.00" fill="#000000"> &#160;Declarations</text>
<polygon fill="#8dd3c7" stroke="transparent" points="273,-10 273,-30 293,-30 293,-10 273,-10"/>
<text text-anchor="start" x="296.7251" y="-15.4" font-family="sans-serif" font-size="14.00" fill="#000000"> &#160;Module</text>
<polygon fill="#80b1d3" stroke="transparent" points="359,-10 359,-30 379,-30 379,-10 359,-10"/>
<text text-anchor="start" x="382.7812" y="-15.4" font-family="sans-serif" font-size="14.00" fill="#000000"> &#160;Bootstrap</text>
<polygon fill="#fdb462" stroke="transparent" points="456,-10 456,-30 476,-30 476,-10 456,-10"/>
<text text-anchor="start" x="479.6732" y="-15.4" font-family="sans-serif" font-size="14.00" fill="#000000"> &#160;Providers</text>
<polygon fill="#fb8072" stroke="transparent" points="552,-10 552,-30 572,-30 572,-10 552,-10"/>
<text text-anchor="start" x="575.7258" y="-15.4" font-family="sans-serif" font-size="14.00" fill="#000000"> &#160;Exports</text>
<g id="clust1" class="cluster">
<title>cluster_InteractorModule</title>
<polygon fill="none" stroke="#000000" stroke-dasharray="1,5" points="8,-70 8,-195 780,-195 780,-70 8,-70"/>
</g>
<g id="clust2" class="cluster">
<title>cluster_InteractorModule_declarations</title>
<polygon fill="none" stroke="#000000" points="280,-78 280,-130 772,-130 772,-78 280,-78"/>
</g>
<g id="clust6" class="cluster">
<title>cluster_InteractorModule_imports</title>
<polygon fill="none" stroke="#000000" points="170,-78 170,-130 272,-130 272,-78 170,-78"/>
</g>
<g id="clust9" class="cluster">
<title>cluster_InteractorModule_providers</title>
<polygon fill="none" stroke="#000000" points="16,-78 16,-130 162,-130 162,-78 16,-78"/>
</g>
<!-- PreViewerComponent -->
<g id="node1" class="node">
<title>PreViewerComponent</title>
<polygon fill="#ffffb3" stroke="#000000" points="763.6839,-122 622.3161,-122 622.3161,-86 763.6839,-86 763.6839,-122"/>
<text text-anchor="middle" x="693" y="-99.8" font-family="Times,serif" font-size="14.00" fill="#000000">PreViewerComponent</text>
</g>
<!-- InteractorModule -->
<g id="node4" class="node">
<title>InteractorModule</title>
<polygon fill="#8dd3c7" stroke="#000000" points="412.9566,-187 409.9566,-191 388.9566,-191 385.9566,-187 299.0434,-187 299.0434,-151 412.9566,-151 412.9566,-187"/>
<text text-anchor="middle" x="356" y="-164.8" font-family="Times,serif" font-size="14.00" fill="#000000">InteractorModule</text>
</g>
<!-- PreViewerComponent&#45;&gt;InteractorModule -->
<g id="edge1" class="edge">
<title>PreViewerComponent&#45;&gt;InteractorModule</title>
<path fill="none" stroke="#000000" d="M693,-122.2843C693,-143.3211 693,-175 693,-175 693,-175 423.1675,-175 423.1675,-175"/>
<polygon fill="#000000" stroke="#000000" points="423.1675,-171.5001 413.1675,-175 423.1674,-178.5001 423.1675,-171.5001"/>
</g>
<!-- ProteinViewerComponent -->
<g id="node2" class="node">
<title>ProteinViewerComponent</title>
<polygon fill="#ffffb3" stroke="#000000" points="604.465,-122 441.535,-122 441.535,-86 604.465,-86 604.465,-122"/>
<text text-anchor="middle" x="523" y="-99.8" font-family="Times,serif" font-size="14.00" fill="#000000">ProteinViewerComponent</text>
</g>
<!-- ProteinViewerComponent&#45;&gt;InteractorModule -->
<g id="edge2" class="edge">
<title>ProteinViewerComponent&#45;&gt;InteractorModule</title>
<path fill="none" stroke="#000000" d="M523,-122.0225C523,-139.3734 523,-163 523,-163 523,-163 423.0048,-163 423.0048,-163"/>
<polygon fill="#000000" stroke="#000000" points="423.0049,-159.5001 413.0048,-163 423.0048,-166.5001 423.0049,-159.5001"/>
</g>
<!-- SummaryComponent -->
<g id="node3" class="node">
<title>SummaryComponent</title>
<polygon fill="#ffffb3" stroke="#000000" points="423.7716,-122 288.2284,-122 288.2284,-86 423.7716,-86 423.7716,-122"/>
<text text-anchor="middle" x="356" y="-99.8" font-family="Times,serif" font-size="14.00" fill="#000000">SummaryComponent</text>
</g>
<!-- SummaryComponent&#45;&gt;InteractorModule -->
<g id="edge3" class="edge">
<title>SummaryComponent&#45;&gt;InteractorModule</title>
<path fill="none" stroke="#000000" d="M356,-122.1061C356,-122.1061 356,-140.991 356,-140.991"/>
<polygon fill="#000000" stroke="#000000" points="352.5001,-140.9909 356,-150.991 359.5001,-140.991 352.5001,-140.9909"/>
</g>
<!-- CoreModule -->
<g id="node5" class="node">
<title>CoreModule</title>
<polygon fill="#8dd3c7" stroke="#000000" points="264.2619,-122 261.2619,-126 240.2619,-126 237.2619,-122 177.7381,-122 177.7381,-86 264.2619,-86 264.2619,-122"/>
<text text-anchor="middle" x="221" y="-99.8" font-family="Times,serif" font-size="14.00" fill="#000000">CoreModule</text>
</g>
<!-- CoreModule&#45;&gt;InteractorModule -->
<g id="edge4" class="edge">
<title>CoreModule&#45;&gt;InteractorModule</title>
<path fill="none" stroke="#000000" d="M221,-122.0225C221,-139.3734 221,-163 221,-163 221,-163 288.7478,-163 288.7478,-163"/>
<polygon fill="#000000" stroke="#000000" points="288.7479,-166.5001 298.7478,-163 288.7478,-159.5001 288.7479,-166.5001"/>
</g>
<!-- TalkerService -->
<g id="node6" class="node">
<title>TalkerService</title>
<ellipse fill="#fdb462" stroke="#000000" cx="89" cy="-104" rx="65.3839" ry="18"/>
<text text-anchor="middle" x="89" y="-99.8" font-family="Times,serif" font-size="14.00" fill="#000000">TalkerService</text>
</g>
<!-- TalkerService&#45;&gt;InteractorModule -->
<g id="edge5" class="edge">
<title>TalkerService&#45;&gt;InteractorModule</title>
<path fill="none" stroke="#000000" d="M89,-122.2843C89,-143.3211 89,-175 89,-175 89,-175 288.7218,-175 288.7218,-175"/>
<polygon fill="#000000" stroke="#000000" points="288.7218,-178.5001 298.7218,-175 288.7218,-171.5001 288.7218,-178.5001"/>
</g>
</g>
</svg>
